<?xml version="1.0" encoding="UTF-8"?>
<svg id="Source_copy" data-name="Source copy" xmlns="http://www.w3.org/2000/svg" viewBox="0 0 720 720">
  <defs>
    <style>
      .cls-1 {
        fill: #fefefe;
      }
    </style>
  </defs>
  <path class="cls-1" d="M599.49,103.02H120.51c-9.01,0-16.32,7.31-16.32,16.32v3.35c.19,3.98,.53,7.85,.96,11.66,7.97,71.16,56.71,113.26,119.65,119.06,2,.18,4.02,.25,6.03,.25h39.13s0,55.72,0,55.72c0,8.29,6.72,15.01,15.01,15.01h0c8.29,0,15.01-6.72,15.01-15.01v-55.72s0-15.01,0-15.01c0-9.01-7.31-16.32-16.32-16.32h-51.12c-4.7,0-9.39-.42-13.99-1.37-46.67-9.62-71.13-41.48-81.36-86.62h445.59c-10.24,45.14-34.7,76.99-81.36,86.62-4.6,.95-9.29,1.37-13.99,1.37h-37.41s-13.71,0-13.71,0c-9.01,0-16.32,7.31-16.32,16.32v36.14l-120.02,104.33-30.02,26.1v195.45c0,9.01,7.31,16.32,16.32,16.32h13.71c84.93-4.9,148.13-74.79,150.04-155.91v-14.32c0-7.49-5.93-13.78-13.42-13.91-9.14-.15-16.6,7.21-16.6,16.31v11.91c-2.78,63.52-52.11,124.22-120.02,123.28v-165.45l12.79-11.11,107.23-93.22,30.02-26.1v-34.81h39.13c2.01,0,4.03-.06,6.03-.25,62.95-5.8,111.68-47.9,119.65-119.06,.43-3.81,.77-7.68,.96-11.66v-3.35c0-9.01-7.31-16.32-16.32-16.32Z"/>
</svg>
